<svg width="118" height="27" viewBox="0 0 118 27" fill="none" xmlns="http://www.w3.org/2000/svg">
<path d="M92.4786 26.6087H89.4264L101.283 0.391266H105.157L117.052 26.6087H113.922L110.4 18.9L109.266 16.3956L104.726 6.45648L103.279 3.05213H103.044L101.635 6.45648L97.1351 16.3956L96.0003 18.9L92.4786 26.6087Z" fill="#212121"/>
<path d="M68.6776 26.6087H65.8993V0.391266H78.7341C84.2123 0.391266 87.9297 3.16953 87.9297 7.98257C87.9297 12.4043 84.6819 15.1434 79.8297 15.2608V15.4565C81.5515 15.926 82.5297 17.0608 83.4297 18.5869L88.3602 26.6087H85.1515L80.4949 19.0174C79.1645 16.826 77.7949 15.8869 74.3123 15.8869H68.6776V26.6087ZM68.6776 2.93474V13.6565H78.6949C82.8428 13.6565 85.0341 12.013 85.0341 8.29561C85.0341 4.57822 82.8428 2.93474 78.6949 2.93474H68.6776Z" fill="black"/>
<path d="M48.8756 27C41.0887 27 35.6495 21.6783 35.6495 13.5C35.6495 5.32174 41.0887 0 48.8756 0C56.7408 0 62.18 5.32174 62.18 13.5C62.18 21.6783 56.7408 27 48.8756 27ZM48.8756 24.3C55.5278 24.3 59.2452 20.6217 59.2452 13.5C59.2452 6.37826 55.5278 2.7 48.8756 2.7C42.2626 2.7 38.5843 6.37826 38.5843 13.5C38.5843 20.6217 42.2626 24.3 48.8756 24.3Z" fill="black"/>
<path d="M43.4062 14.1791C45.9747 14.1791 48.9159 12.1956 48.9159 7.09525C48.9159 12.1956 51.6501 14.1791 54.4256 14.1791C51.6501 14.1791 48.9159 16.365 48.9159 21.263C48.9159 16.365 45.9747 14.1791 43.4062 14.1791Z" fill="black"/>
<path d="M31.9545 26.6087H29.1763V0.391266H31.9545V26.6087Z" fill="black"/>
<path d="M15.4174 26.6087H11.5435L0 0.391266H3.28696L13.4217 23.7913H13.6174L23.713 0.391266H26.9609L15.4174 26.6087Z" fill="black"/>
</svg>
